<svg width="20" height="20" viewBox="0 0 20 20" fill="none" xmlns="http://www.w3.org/2000/svg">
<path d="M16.5588 3.92873C16.545 3.82873 16.4574 3.77339 16.385 3.76729C16.3127 3.76126 14.7834 3.64791 14.7834 3.64791C14.7834 3.64791 13.7213 2.59345 13.6047 2.47674C13.4881 2.3601 13.2603 2.39558 13.1718 2.42161C13.1588 2.42544 12.9398 2.49304 12.5775 2.60517C12.2227 1.58421 11.5965 0.645989 10.4949 0.645989C10.4645 0.645989 10.4332 0.647222 10.4019 0.649003C10.0886 0.234688 9.70054 0.0546875 9.36533 0.0546875C6.79924 0.0546875 5.57328 3.26256 5.1889 4.8927C4.19177 5.20167 3.48342 5.42133 3.39294 5.44976C2.83636 5.62434 2.81876 5.64188 2.74568 6.16633C2.69068 6.56339 1.23438 17.8256 1.23438 17.8256L12.5822 19.9518L18.7308 18.6217C18.7308 18.6217 16.5723 4.02873 16.5588 3.92873ZM11.9503 2.79914L10.9901 3.09633C10.9904 3.02866 10.9907 2.96208 10.9907 2.88928C10.9907 2.25476 10.9027 1.74387 10.7614 1.33887C11.329 1.4101 11.707 2.05592 11.9503 2.79914ZM10.0573 1.46469C10.2151 1.8601 10.3177 2.42756 10.3177 3.19332C10.3177 3.2325 10.3173 3.26832 10.317 3.30455C9.69253 3.49798 9.01396 3.70798 8.3339 3.91866C8.71574 2.44496 9.4315 1.73318 10.0573 1.46469ZM9.29485 0.742975C9.40561 0.742975 9.51718 0.780578 9.62396 0.854071C8.80157 1.24106 7.92006 2.21572 7.5478 4.16209L5.98027 4.64756C6.41629 3.16298 7.4517 0.742975 9.29485 0.742975Z" fill="#95BF46"/>
<path d="M16.3882 3.76426C16.3159 3.75823 14.7866 3.64488 14.7866 3.64488C14.7866 3.64488 13.7245 2.59042 13.6079 2.47371C13.5643 2.43029 13.5055 2.40803 13.444 2.39844L12.5859 19.9486L18.734 18.6186C18.734 18.6186 16.5755 4.0257 16.562 3.9257C16.5482 3.8257 16.4606 3.77036 16.3882 3.76426Z" fill="#5E8E3E"/>
<path d="M10.4987 7.16431L9.7405 9.41952C9.7405 9.41952 9.07626 9.065 8.26201 9.065C7.06831 9.065 7.00824 9.81411 7.00824 10.0029C7.00824 11.0329 9.69318 11.4275 9.69318 13.8401C9.69318 15.7383 8.48927 16.9605 6.86598 16.9605C4.91804 16.9605 3.92188 15.7482 3.92188 15.7482L4.44345 14.0249C4.44345 14.0249 5.46742 14.904 6.33146 14.904C6.89605 14.904 7.12571 14.4595 7.12571 14.1347C7.12571 12.7912 4.92297 12.7312 4.92297 10.5235C4.92297 8.66534 6.25667 6.86719 8.94886 6.86719C9.98619 6.86719 10.4987 7.16431 10.4987 7.16431Z" fill="white"/>
</svg>