<svg xmlns="http://www.w3.org/2000/svg" viewBox="0 0 1085.57 165.11"><defs><style>.a{fill:#00a5fa;}.b{fill:#0071f5;}.c{fill:#00dafe;}.d{fill:#001b39;}</style></defs><title>Tradelle 2</title><polygon class="a" points="174.68 103.19 198.51 61.91 121.49 61.91 61.92 165.11 103.19 165.11 138.94 103.19 174.68 103.19"/><polygon class="b" points="174.68 41.27 198.51 0 95.32 0 0 165.11 41.28 165.11 112.77 41.27 174.68 41.27"/><polygon class="b" points="74.68 0 23.83 0 0 41.27 50.85 41.27 74.68 0"/><polygon class="c" points="198.51 123.83 147.66 123.83 123.83 165.11 174.68 165.11 198.51 123.83"/><path class="d" d="M383.58,10.85V35.37H343.22V162.31H312.84V35.37H272.48V10.85Z"/><path class="d" d="M441.63,45.78a42.6,42.6,0,0,1,21.59-5.42v31.9h-8q-14.32,0-21.59,6.72t-7.27,23.44v59.89H396V42.09h30.38V60.76A42.78,42.78,0,0,1,441.63,45.78Z"/><path class="d" d="M473.31,69.44a53.1,53.1,0,0,1,19.75-21.7,52.48,52.48,0,0,1,27.88-7.6q13.45,0,23.54,5.43a47.65,47.65,0,0,1,16.17,13.67V42.09h30.6V162.31h-30.6V144.73a45.1,45.1,0,0,1-16.17,14,49.44,49.44,0,0,1-23.76,5.54,51,51,0,0,1-27.66-7.82,54.52,54.52,0,0,1-19.75-22Q466,120.21,466,101.77,466,83.55,473.31,69.44Zm83,13.78a30.59,30.59,0,0,0-11.72-12.16,31.33,31.33,0,0,0-15.84-4.23A30.49,30.49,0,0,0,501.52,83q-4.45,7.92-4.45,18.77a39,39,0,0,0,4.45,19,32,32,0,0,0,11.72,12.47,29.66,29.66,0,0,0,15.51,4.34,31.33,31.33,0,0,0,15.84-4.23,30.56,30.56,0,0,0,11.72-12.15q4.34-7.92,4.34-19T556.31,83.22Z"/><path class="d" d="M610.67,69.44a52.41,52.41,0,0,1,47.85-29.3,51.06,51.06,0,0,1,22.35,5.1A44.71,44.71,0,0,1,697.79,58.8V1.73h30.82V162.31H697.79V144.52A41.11,41.11,0,0,1,682,158.84q-10.2,5.41-23.65,5.43a51.63,51.63,0,0,1-27.78-7.82,54.32,54.32,0,0,1-19.85-22q-7.27-14.22-7.27-32.66Q603.4,83.55,610.67,69.44Zm83,13.78A30.66,30.66,0,0,0,682,71.06a31.33,31.33,0,0,0-15.84-4.23A30.49,30.49,0,0,0,638.88,83q-4.46,7.92-4.45,18.77a39,39,0,0,0,4.45,19,32,32,0,0,0,11.72,12.47,29.66,29.66,0,0,0,15.51,4.34A31.33,31.33,0,0,0,682,133.34a30.63,30.63,0,0,0,11.72-12.15q4.33-7.92,4.34-19T693.67,83.22Z"/><path class="d" d="M859.46,111.32H771.57q1.08,13,9.12,20.39a28.08,28.08,0,0,0,19.74,7.38q16.94,0,24.09-14.54h32.77a54.78,54.78,0,0,1-20,28.54q-14.76,11.17-36.24,11.18a62.69,62.69,0,0,1-31.14-7.71,54.21,54.21,0,0,1-21.48-21.81q-7.71-14.1-7.7-32.55,0-18.66,7.59-32.76a53,53,0,0,1,21.27-21.7q13.67-7.6,31.46-7.6a63.2,63.2,0,0,1,30.71,7.38,52,52,0,0,1,21.05,20.94Q860.33,82,860.32,99.6A72.74,72.74,0,0,1,859.46,111.32Zm-30.6-20.4q-.23-11.72-8.46-18.77T800.22,65.1q-11.29,0-19,6.83t-9.44,19Z"/><path class="d" d="M903.07,1.73V162.31H872.69V1.73Z"/><path class="d" d="M953.63,1.73V162.31H923.25V1.73Z"/><path class="d" d="M1084.7,111.32H996.82q1.08,13,9.11,20.39a28.1,28.1,0,0,0,19.75,7.38q16.92,0,24.08-14.54h32.77a54.77,54.77,0,0,1-20,28.54q-14.76,11.17-36.24,11.18a62.64,62.64,0,0,1-31.14-7.71,54.08,54.08,0,0,1-21.48-21.81Q966,120.65,966,102.2q0-18.66,7.6-32.76a52.92,52.92,0,0,1,21.26-21.7q13.68-7.6,31.47-7.6a63.19,63.19,0,0,1,30.7,7.38,52,52,0,0,1,21,20.94q7.49,13.56,7.49,31.14A71.54,71.54,0,0,1,1084.7,111.32Zm-30.6-20.4q-.21-11.72-8.46-18.77t-20.18-7.05q-11.28,0-19,6.83t-9.44,19Z"/></svg>